<svg width="174" height="64" viewBox="0 0 174 64" fill="none" xmlns="http://www.w3.org/2000/svg">
<path d="M0 63.7714V36.7004H6.23544C10.7979 36.7004 13.0792 39.3491 13.0792 44.6465C13.0792 46.2429 12.8317 47.5994 12.3377 48.7151C11.8437 49.8307 10.9745 50.7299 9.73336 51.4148L13.9151 63.7714H9.80885L6.19658 52.213H3.87758V63.7714H0ZM3.87758 40.3505V48.7905H6.08335C6.76717 48.7905 7.31223 48.6951 7.71853 48.5052C8.12372 48.3154 8.44121 48.0434 8.66878 47.6882C8.87192 47.3341 9.01069 46.8967 9.08728 46.3761C9.16388 45.8565 9.20162 45.2549 9.20162 44.5699C9.20162 43.885 9.16388 43.2833 9.08728 42.7638C9.01069 42.2443 8.8586 41.7947 8.63103 41.4139C8.14925 40.7046 7.23675 40.3493 5.89352 40.3493H3.87869L3.87758 40.3505Z" fill="#053541"/>
<path d="M20.1506 63.7714L26.1962 36.7004H29.4277L35.4734 63.7714H31.5958L30.4557 57.9544H25.1705L24.0304 63.7714H20.1529H20.1506ZM29.7319 54.3044L27.8314 44.4956H27.7548L25.8543 54.3044H29.733H29.7319Z" fill="#053541"/>
<path d="M43.1907 63.7714V36.7004H47.0694V63.7714H43.1907Z" fill="#053541"/>
<path d="M56.3842 63.7714V36.7004H60.1097L65.9643 53.0111H66.0409V36.7004H69.9185V63.7714H66.2685L60.3372 47.4984H60.2617V63.7714H56.3831H56.3842Z" fill="#053541"/>
<path d="M82.7326 63.7714V52.3273L77.4097 36.7004H81.5159L84.6331 47.4606H84.7097L87.8268 36.7004H91.9331L86.6102 52.3273V63.7714H82.7315H82.7326Z" fill="#053541"/>
<path d="M99.575 63.7714V36.7004H105.316C107.547 36.7004 109.238 37.3088 110.392 38.5254C111.545 39.7421 112.121 41.4661 112.121 43.6963V56.357C112.121 58.8913 111.506 60.7619 110.277 61.9652C109.047 63.1697 107.28 63.7714 104.973 63.7714H99.575ZM103.454 40.3505V60.1213H105.241C106.331 60.1213 107.104 59.8494 107.56 59.3043C108.016 58.7593 108.245 57.9045 108.245 56.7378V43.6963C108.245 42.6317 108.029 41.808 107.599 41.2252C107.167 40.6424 106.382 40.3505 105.241 40.3505H103.454Z" fill="#053541"/>
<path d="M119.269 63.7714L125.315 36.7004H128.546L134.592 63.7714H130.713L129.573 57.9544H124.288L123.148 63.7714H119.269ZM128.85 54.3044L126.95 44.4956H126.874L124.974 54.3044H128.851H128.85Z" fill="#053541"/>
<path d="M143.717 63.7714V52.3273L138.394 36.7004H142.5L145.617 47.4606H145.693L148.81 36.7004H152.916L147.593 52.3273V63.7714H143.716H143.717Z" fill="#053541"/>
<path d="M173.107 44.4945H169.229V43.6197C169.229 42.7327 169.021 41.9656 168.602 41.3196C168.184 40.6735 167.481 40.3504 166.492 40.3504C165.96 40.3504 165.528 40.4526 165.2 40.6546C164.87 40.8578 164.603 41.1109 164.401 41.415C164.198 41.7447 164.059 42.1188 163.983 42.5362C163.906 42.9536 163.869 43.3921 163.869 43.8484C163.869 44.3801 163.887 44.8242 163.925 45.1794C163.963 45.5346 164.058 45.851 164.21 46.1296C164.363 46.4094 164.585 46.6492 164.875 46.8523C165.166 47.0555 165.566 47.2586 166.073 47.4606L169.038 48.6396C169.9 48.9693 170.597 49.3556 171.13 49.7996C171.661 50.2437 172.08 50.7565 172.384 51.3393C172.663 51.9477 172.853 52.6382 172.955 53.4119C173.056 54.1856 173.107 55.0659 173.107 56.0539C173.107 57.1951 172.992 58.253 172.765 59.2288C172.537 60.2046 172.169 61.035 171.663 61.7188C171.131 62.4292 170.433 62.9865 169.571 63.3917C168.709 63.7969 167.657 64 166.415 64C165.477 64 164.602 63.8346 163.792 63.506C162.98 63.1774 162.283 62.7201 161.701 62.1373C161.118 61.5545 160.655 60.8762 160.313 60.1036C159.971 59.3309 159.8 58.4873 159.8 57.5748V56.1305H163.678V57.3472C163.678 58.0566 163.886 58.6971 164.305 59.2677C164.723 59.8383 165.426 60.1236 166.415 60.1236C167.073 60.1236 167.587 60.0281 167.955 59.8383C168.322 59.6484 168.608 59.3765 168.811 59.0212C169.014 58.6671 169.134 58.2419 169.172 57.7479C169.209 57.2539 169.228 56.7022 169.228 56.0939C169.228 55.3845 169.203 54.8017 169.153 54.3455C169.102 53.8892 169.001 53.5218 168.848 53.2432C168.671 52.9645 168.437 52.7369 168.145 52.5582C167.853 52.3817 167.466 52.1908 166.985 51.9876L164.209 50.8476C162.536 50.1626 161.415 49.2568 160.845 48.1289C160.274 47.0011 159.989 45.5879 159.989 43.8894C159.989 42.8759 160.128 41.9124 160.407 40.9999C160.686 40.0874 161.104 39.3025 161.662 38.6431C162.193 37.9848 162.872 37.4586 163.695 37.0657C164.519 36.6727 165.502 36.4762 166.642 36.4762C167.604 36.4762 168.485 36.6538 169.284 37.0079C170.082 37.3632 170.772 37.8316 171.356 38.4144C172.522 39.6311 173.105 41.0254 173.105 42.5962V44.4967L173.107 44.4945Z" fill="#053541"/>
<path fill-rule="evenodd" clip-rule="evenodd" d="M27.7769 33.1158C30.5477 32.754 34.7771 31.8526 35.048 31.6272C52.8596 16.9828 32.9599 39.6799 52.5221 23.6678C60.869 16.8373 57.8839 19.7169 64.4413 25.3296C66.7591 27.3178 69.2669 22.0814 66.8824 17.8953C66.8124 17.7743 71.7868 11.8219 71.8578 11.7742C71.7979 11.319 73.7905 21.6008 73.6873 14.4806C73.6873 14.4295 75.1238 9.47736 76.0363 9.41853C78.0089 9.29198 75.2037 7.52581 78.5939 5.40663C79.4099 4.8982 80.5355 2.315 80.7342 1.8099C80.7675 1.86096 85.9195 6.47898 86.7021 7.42812C87.5525 8.45607 92.0706 9.50623 91.9029 13.1163C91.8941 13.3161 93.567 16.9206 93.4604 18.8388C93.3705 20.4807 97.9219 22.4378 99.5893 26.5651C101.726 31.8548 99.012 21.522 101.198 24.8523C102.976 27.5676 104.231 26.5851 107.213 30.9922C107.543 31.4751 108.366 32.6152 108.882 33.1147H109.314C109.279 32.8727 109.133 32.4265 108.828 31.7049C108.332 30.5338 107.8 26.191 107.152 25.7914C106.04 25.1087 101.754 22.3235 101.768 21.4254C101.838 17.1182 107.372 24.497 105.91 21.4565C103.108 15.6307 104.337 19.415 102.779 18.5591C103.488 17.6632 103.007 17.0849 103.205 16.5398C104.276 16.1835 104.459 16.6997 101.977 14.3363C99.3373 11.8263 102.774 10.6752 101.339 7.51027C100.725 6.16038 102.974 6.28916 104.493 7.52137C105.272 8.15634 111.003 10.6774 114.759 12.2271C117.737 15.7061 121.26 18.0274 125.326 19.193C122.224 17.4545 119.68 15.5174 117.693 13.3783C117.835 13.426 117.938 13.4537 117.994 13.4648C122.393 14.1864 121.301 14.9923 123.916 16.4555C125.596 16.683 129.094 20.8637 133.875 22.0737C136.404 22.7164 139.016 27.2534 141.742 29.1994C146.908 32.8805 143.383 30.9933 149.031 32.6418C149.587 32.805 150.058 32.9615 150.473 33.1136H152.456C149.398 32.0668 147.488 29.447 145.305 28.691C141.007 27.209 138.82 24.0053 136.041 20.8637C133.105 17.5445 128.938 17.9041 127.415 16.0603C126.368 14.7914 120.25 11.5366 118.573 10.9871C118.531 10.9482 118.422 10.9249 118.352 10.8772C118.124 10.7229 118.012 10.7229 117.846 10.6308C117.463 10.4121 117.349 10.6363 116.935 10.6274C116.779 10.6274 116.255 10.2966 116.239 10.2511C116.193 10.2256 115.99 10.1412 115.961 10.119C115.7 9.90031 115.015 9.41409 114.692 9.38078C114.462 9.35858 114.056 9.08328 113.888 9.02999C113.442 8.88346 113.309 8.54932 112.671 8.44053C112.171 8.35616 111.528 8.19076 111.092 7.92655C111.098 7.87327 105.785 6.38795 105.496 6.31247C105.444 6.30137 105.322 6.2503 105.165 6.18037C104.053 4.93039 102.248 4.67507 100.848 3.88912C100.203 3.52945 97.6499 4.89154 96.7485 5.47545C96.2756 5.78406 96.0225 5.77851 95.7128 6.03938C95.523 6.19924 94.1675 6.79758 93.9488 6.60664C93.7579 6.43791 93.8833 6.49674 93.6913 6.45567C92.8998 6.28138 93.0708 6.7332 92.6878 6.78648C92.0051 6.87973 92.2959 6.98075 91.9484 7.10064C91.3745 7.30601 91.7298 7.44921 91.127 7.43811C90.6641 6.74208 89.353 6.54781 88.7391 5.62976C88.6037 5.42439 87.4559 4.39976 87.0884 4.39199C86.6255 4.38644 85.3067 3.02768 84.5674 2.78346C84.5607 2.78013 83.6993 2.17401 83.6527 2.13516C83.646 2.12961 82.9966 1.8432 82.8234 1.68557C82.5903 1.47243 81.7533 1.12941 81.1028 0.952902C80.8175 0.787497 80.5311 0.646514 80.2602 0.582128C79.2855 0.343457 79.1834 -0.218254 78.4807 0.0903538C77.0653 0.70535 77.3806 0.444476 75.8631 1.4358C75.7199 1.41581 74.9284 1.57345 74.8507 1.64894C74.4455 2.03969 74.1469 2.49705 73.6951 2.48817C72.8836 2.47374 73.1422 2.65136 72.222 3.13092C71.4438 3.54388 71.2895 3.8436 70.438 4.19773C70.0606 4.35758 69.1681 5.19682 68.7906 5.15796C68.5642 5.29562 68.1867 4.98368 67.7416 5.66861C67.6605 5.79183 67.1599 5.77851 66.6936 6.36242C66.6748 6.38795 66.1974 6.62108 66.0664 6.7554C65.2627 7.57798 65.6957 7.07289 65.3327 7.27714C64.822 7.5691 64.2814 7.88881 63.7374 8.10306C62.6584 8.51824 62.7039 8.83018 62.1844 9.13656C61.4962 9.54397 61.4518 9.78264 60.5703 10.0879C60.0952 10.2567 58.5344 11.4833 58.0193 11.5766C57.5231 11.6609 55.6981 13.3738 54.981 13.6846C54.9244 13.7124 54.7523 13.8423 54.7035 13.8867C53.6489 14.0132 53.2914 14.7348 52.3878 15.1666C51.9748 15.3631 51.8838 15.6184 51.3743 15.7594C50.6505 15.9537 49.6025 17.0227 49.3017 17.1237C48.6923 17.3347 47.7043 18.2583 47.1437 18.205C47.1348 18.2016 45.4585 19.1452 45.4119 19.2129C45.3653 19.2773 45.3065 19.2995 45.3087 19.3617C44.6915 19.8446 45.0911 18.9965 43.9088 20.3974C43.1517 21.2933 41.1891 21.8938 39.9402 23.2804C39.6627 23.589 39.5439 22.8452 38.1696 24.8944C36.9485 26.7106 35.844 26.4786 34.3042 27.7074C33.152 28.6255 32.3793 28.2292 30.642 29.6168C29.452 30.5659 28.1399 31.3796 26.8266 32.079C26.316 32.3543 25.9019 32.9438 25.3901 33.1125H27.7769V33.1158Z" fill="#053541"/>
</svg>
