<svg width="13" height="13" viewBox="0 0 13 13" fill="none" xmlns="http://www.w3.org/2000/svg">
<mask id="mask0_237_461" style="mask-type:alpha" maskUnits="userSpaceOnUse" x="0" y="0" width="13" height="13">
<rect width="12.1484" height="12.1484" fill="#D9D9D9"/>
</mask>
<g mask="url(#mask0_237_461)">
<path d="M4.75806 9.8335L6.07414 8.51741L7.39022 9.8335L8.09888 9.12484L6.7828 7.80876L8.09888 6.49268L7.39022 5.78402L6.07414 7.1001L4.75806 5.78402L4.0494 6.49268L5.36548 7.80876L4.0494 9.12484L4.75806 9.8335ZM3.54321 12.1113C3.26481 12.1113 3.02657 12.0123 2.82848 11.8142C2.63006 11.6158 2.53084 11.3774 2.53084 11.099V4.51855H2.02466V3.50618H4.55558V3H7.59269V3.50618H10.1236V4.51855H9.61743V11.099C9.61743 11.3774 9.51839 11.6158 9.3203 11.8142C9.12188 12.0123 8.88346 12.1113 8.60506 12.1113H3.54321ZM8.60506 4.51855H3.54321V11.099H8.60506V4.51855Z" fill="#595959"/>
</g>
</svg>
